inDegrees=yes
name=ik_S57_A11_T01
DataType=double
version=3
OpenSimVersion=4.3-2021-08-27-4bc7ad9
endheader
time	pelvis_tilt	pelvis_list	pelvis_rotation	pelvis_tx	pelvis_ty	pelvis_tz	hip_flexion_r	hip_adduction_r	hip_rotation_r	knee_angle_r	knee_angle_r_beta	ankle_angle_r	subtalar_angle_r	mtp_angle_r	hip_flexion_l	hip_adduction_l	hip_rotation_l	knee_angle_l	knee_angle_l_beta	ankle_angle_l	subtalar_angle_l	mtp_angle_l	lumbar_extension	lumbar_bending	lumbar_rotation	arm_flex_r	arm_add_r	arm_rot_r	elbow_flex_r	pro_sup_r	wrist_flex_r	wrist_dev_r	arm_flex_l	arm_add_l	arm_rot_l	elbow_flex_l	pro_sup_l	wrist_flex_l	wrist_dev_l
0	0	0	0	0	0.9399999999999999	0	0	0	0	0	0	0	0	0	0	0	0	0	0	0	0	0	0	0	0	0	0	0	0	89.99999999963507	0	0	0	0	0	0	89.99999999869995	0	0
0.02	0.4143968038888901	1.025220071470828	28.74555463674001	0	0.9399999999999999	0	1.510821644109306	-0.70375190446165	-0.5074794570890255	2.354123152656479	0.04108720001128464	0	0	0	1.510821644109306	-0.70375190446165	-0.5074794570890255	2.354123152656479	0.04108720001128464	0	0	0	0.5730540009377292	1.442571988580461	14.06831972436287	3.281031058493383	-1.596487524533608	0.5455603285639833	1.584991768544711	92.95113631914116	0	0	0.6849053433095482	-0.3546926279367342	4.910399814815047	4.105103044586695	91.33627829707706	0	0
0.04	0.4077097915038946	1.021528182669899	28.77055635539346	0	0.9399999999999999	0	1.527487845922084	-0.7125249235397214	-0.5131148715508628	2.379998819835653	0.04153881559971147	0	0	0	1.527487845922084	-0.7125249235397214	-0.5131148715508628	2.379998819835653	0.04153881559971147	0	0	0	0.5654531985374038	1.442444708229436	14.06615327549507	3.318671436184096	-1.599851874550856	0.6113200635600418	1.560132507382293	92.87583230418807	0	0	0.7222815347380047	-0.3636119127543337	4.83720694847806	4.137699318414802	91.33193003464106	0	0
0.06	0.4064503904963911	1.040962465943441	28.88067815992033	0	0.9399999999999999	0	2.034026560016219	-0.9376213902826939	-0.7006258219481766	2.736455161287788	0.04776015239766438	0	0	0	2.034026560016219	-0.9376213902826939	-0.7006258219481766	2.736455161287788	0.04776015239766438	0	0	0	0.5755086675378551	1.453748403426257	13.99008769231115	3.287686873712833	-1.629286094103826	0.5809297465100116	1.571597535603768	92.95432707262404	0	0	0.7062111854715083	-0.3541831084614704	4.754624529118432	4.130813395809665	91.42883061048725	0	0
0.08	0.4040579515069346	1.039097412067314	28.89502059909112	0	0.9399999999999999	0	2.049107758279654	-0.9455254946419112	-0.7057354614787503	2.759630304238539	0.04816463494677534	0	0	0	2.049107758279654	-0.9455254946419112	-0.7057354614787503	2.759630304238539	0.04816463494677534	0	0	0	0.5728308092141633	1.452844042812017	13.96984928449714	3.336350736482296	-1.611425608308277	0.7416600294986432	1.532575024133408	92.92136218972601	0	0	0.7172981537862266	-0.3614742128425406	4.656683941530376	4.159602855739377	91.32900572014779	0	0
0.1	0.4029228551760495	1.039128850964214	29.22749957837373	0	0.9399999999999999	0	3.788057242321334	-1.7045343574904	-1.3350061082264	4.18612914061402	0.07306173641739533	0	0	0	3.788057242321334	-1.7045343574904	-1.3350061082264	4.18612914061402	0.07306173641739533	0	0	0	0.5749582875599989	1.437515980990427	13.70971526555986	3.35308988425624	-1.597087399056151	0.6562813085731219	1.500597011235611	92.98597102041425	0	0	0.7601932277606168	-0.3530979349022947	4.636793684303377	4.18006411069181	91.25404393501387	0	0
0.12	0.4220608982197604	1.05215884650084	29.30477658743482	0	0.9399999999999999	0	3.79907755855963	-1.710200657593563	-1.338754549586177	4.202351771284515	0.07334487473593047	0	0	0	3.79907755855963	-1.710200657593563	-1.338754549586177	4.202351771284515	0.07334487473593047	0	0	0	0.5974804675333043	1.440134885930758	13.74440136685689	3.297265228041441	-1.609301082481354	0.5552796536682373	1.507063938532504	93.07343039187245	0	0	0.7118983017539477	-0.393291136139265	4.666360452228759	4.176720742964821	91.29415219408618	0	0
0.14	0.4375860740785032	1.072689495072027	29.38563029953961	0	0.9399999999999999	0	3.81896495433621	-1.72043820380892	-1.345522052651722	4.231597367294484	0.07385530667801257	0	0	0	3.81896495433621	-1.72043820380892	-1.345522052651722	4.231597367294484	0.07385530667801257	0	0	0	0.6206074344776233	1.450959540816865	13.77419105412112	3.245191413054518	-1.619888266603817	0.4443910898559506	1.505130457335473	93.29877084488382	0	0	0.6653220749331135	-0.3936538284256451	4.668276314314876	4.186462798442606	91.35862735310646	0	0
0.16	0.4303353748136326	1.087002145927304	29.43401888404188	0	0.9399999999999999	0	3.830512348512864	-1.726379154581274	-1.349451476933897	4.248560077705117	0.07415136182474043	0	0	0	3.830512348512864	-1.726379154581274	-1.349451476933897	4.248560077705117	0.07415136182474043	0	0	0	0.621442860217699	1.466802297118292	13.76755242355536	3.33267359569405	-1.634833241706297	0.634145465675265	1.429760197707882	93.36818497565223	0	0	0.6655444721712184	-0.36892008564397	4.578752569416766	4.174200431460016	91.3971554636919	0	0
0.18	0.3905722272558597	1.12936207292113	29.48040588540717	0	0.9399999999999999	0	3.843271662949074	-1.732935837954433	-1.353792467703016	4.267284909132044	0.07447817178502121	0	0	0	3.843271662949074	-1.732935837954433	-1.353792467703016	4.267284909132044	0.07447817178502121	0	0	0	0.6083249766382072	1.522446509198105	13.72925369782623	3.427938545417841	-1.748201497063346	1.009250037621235	1.330544799213639	93.37967602077705	0	0	0.671925033443466	-0.2573844450321424	4.578872973784249	4.193723903008424	91.30774242029469	0	0
